<?xml version="1.0" encoding="UTF-8" standalone="no"?>
<!-- Created with Inkscape (http://www.inkscape.org/) -->

<svg
   xmlns:dc="http://purl.org/dc/elements/1.1/"
   xmlns:cc="http://creativecommons.org/ns#"
   xmlns:rdf="http://www.w3.org/1999/02/22-rdf-syntax-ns#"
   xmlns:svg="http://www.w3.org/2000/svg"
   xmlns="http://www.w3.org/2000/svg"
   xmlns:sodipodi="http://sodipodi.sourceforge.net/DTD/sodipodi-0.dtd"
   xmlns:inkscape="http://www.inkscape.org/namespaces/inkscape"
   width="77.682571mm"
   height="77.682571mm"
   viewBox="0 0 275.25321 275.2532"
   id="svg2"
   version="1.1"
   inkscape:version="0.91 r13725"
   sodipodi:docname="mode-laptop.svg">
  <defs
     id="defs4" />
  <sodipodi:namedview
     id="base"
     pagecolor="#ffffff"
     bordercolor="#666666"
     borderopacity="1.0"
     inkscape:pageopacity="0.0"
     inkscape:pageshadow="2"
     inkscape:zoom="2.8"
     inkscape:cx="87.785333"
     inkscape:cy="137.53724"
     inkscape:document-units="px"
     inkscape:current-layer="text4171"
     showgrid="false"
     inkscape:window-width="1920"
     inkscape:window-height="1015"
     inkscape:window-x="0"
     inkscape:window-y="0"
     inkscape:window-maximized="1"
     fit-margin-top="1"
     fit-margin-left="1"
     fit-margin-right="1"
     fit-margin-bottom="1" />
  <metadata
     id="metadata7">
    <rdf:RDF>
      <cc:Work
         rdf:about="">
        <dc:format>image/svg+xml</dc:format>
        <dc:type
           rdf:resource="http://purl.org/dc/dcmitype/StillImage" />
        <dc:title />
      </cc:Work>
    </rdf:RDF>
  </metadata>
  <g
     inkscape:label="Layer 1"
     inkscape:groupmode="layer"
     id="layer1"
     transform="translate(-86.769948,71.030607)">
    <rect
       style="fill:#000000;fill-opacity:1;stroke:#000000;stroke-width:1.77165353;stroke-linecap:square;stroke-linejoin:round;stroke-miterlimit:4;stroke-dasharray:none;stroke-dashoffset:0;stroke-opacity:1"
       id="rect4136"
       width="266.39493"
       height="23.233505"
       x="91.199081"
       y="144.55995"
       ry="11.616753" />
    <rect
       style="fill:#ffffff;fill-opacity:1;stroke:#ffffff;stroke-width:1.77165353;stroke-linecap:square;stroke-linejoin:round;stroke-miterlimit:4;stroke-dasharray:none;stroke-dashoffset:0;stroke-opacity:1"
       id="rect4140"
       width="65"
       height="11.071428"
       x="191.89655"
       y="150.71935"
       ry="5.5357141" />
    <circle
       style="fill:#ffffff;fill-opacity:1;stroke:#ffffff;stroke-width:1.77165353;stroke-linecap:square;stroke-linejoin:round;stroke-miterlimit:4;stroke-dasharray:none;stroke-dashoffset:0;stroke-opacity:1"
       id="path4142"
       cx="318.57144"
       cy="161.79077"
       r="3.2142856" />
    <circle
       r="3.2142856"
       cy="161.79077"
       cx="328.57144"
       id="circle4144"
       style="fill:#ffffff;fill-opacity:1;stroke:#ffffff;stroke-width:1.77165353;stroke-linecap:square;stroke-linejoin:round;stroke-miterlimit:4;stroke-dasharray:none;stroke-dashoffset:0;stroke-opacity:1" />
    <path
       style="fill:#000000;fill-opacity:1;stroke:#000000;stroke-width:1.77165353;stroke-linecap:square;stroke-linejoin:round;stroke-miterlimit:4;stroke-dasharray:none;stroke-dashoffset:0;stroke-opacity:1"
       d="m 346.42857,-13.173511 0,147.892861 -244.28571,0 0,-147.892861 c -0.11905,-7.023809 6.54762,-12.97619 13.03571,-13.035714 l 218.21429,0 c 7.91666,0.05952 12.97619,5.47619 13.03571,13.035714 z"
       id="rect4146"
       inkscape:connector-curvature="0"
       sodipodi:nodetypes="ccccccc" />
    <g
       style="font-style:normal;font-weight:normal;font-size:25px;line-height:125%;font-family:sans-serif;letter-spacing:0px;word-spacing:0px;fill:#ffffff;fill-opacity:1;stroke:none;stroke-width:1px;stroke-linecap:butt;stroke-linejoin:miter;stroke-opacity:1"
       id="text4171">
      <path
         d="m 159.45093,-8.4980087 0,47.4316407 -12.1875,0 0,-47.4316407 12.1875,0 z"
         style="font-style:normal;font-variant:normal;font-weight:normal;font-stretch:condensed;font-size:60px;font-family:Impact;-inkscape-font-specification:'Impact Condensed';text-align:center;text-anchor:middle;fill:#ffffff;fill-opacity:1"
         id="path4143" />
      <path
         d="m 174.24585,15.115273 -11.10352,0 0,-2.607422 q 0,-4.5117191 1.02539,-6.9433597 1.05469,-2.4609375 4.18946,-4.3359375 3.13476,-1.87500003 8.14453,-1.87500003 6.00586,0 9.05273,2.13867183 3.04688,2.109375 3.66211,5.2148438 0.61524,3.0761719 0.61524,12.7148436 l 0,19.511719 -11.51367,0 0,-3.457031 q -1.08399,2.080078 -2.8125,3.134765 -1.69922,1.025391 -4.07227,1.025391 -3.10547,0 -5.71289,-1.728516 -2.57813,-1.757812 -2.57813,-7.646484 l 0,-3.193359 q 0,-4.365235 1.37696,-5.947266 1.37695,-1.582031 6.82617,-3.691406 5.83008,-2.285157 6.24023,-3.076172 0.41016,-0.791016 0.41016,-3.222656 0,-3.0468755 -0.46875,-3.9550786 -0.43945,-0.9375 -1.49414,-0.9375 -1.20117,0 -1.49414,0.7910156 -0.29297,0.7617188 -0.29297,4.013672 l 0,4.072266 z m 3.75,5.332031 q -2.8418,2.080078 -3.31055,3.486328 -0.43945,1.40625 -0.43945,4.042969 0,3.017578 0.38086,3.896484 0.41016,0.878906 1.58203,0.878906 1.11328,0 1.43555,-0.673828 0.35156,-0.703125 0.35156,-3.632812 l 0,-7.998047 z"
         style="font-style:normal;font-variant:normal;font-weight:normal;font-stretch:condensed;font-size:60px;font-family:Impact;-inkscape-font-specification:'Impact Condensed';text-align:center;text-anchor:middle;fill:#ffffff;fill-opacity:1"
         id="path4145" />
      <path
         d="m 205.94507,0.05667877 -0.20508,3.42773433 q 1.58203,-2.0800781 3.48633,-3.1054687 1.9043,-1.02539063 4.16015,-1.02539063 2.75391,0 4.7461,1.49414063 2.02148,1.4648437 2.51953,3.3984375 0.49805,1.9335937 0.49805,6.5625001 l 0,16.376953 q 0,5.302734 -0.64453,7.558594 -0.61524,2.226562 -2.57813,3.574219 -1.93359,1.318359 -4.6875,1.318359 -2.19727,0 -4.07227,-1.025391 -1.875,-1.02539 -3.42773,-3.046875 l 0,8.90625 -11.83594,0 0,-44.41406223 12.04102,0 z m 3.36914,11.30859423 q 0,-3.6035161 -0.26367,-4.3652349 -0.26367,-0.7617187 -1.46485,-0.7617187 -1.17187,0 -1.52343,0.8789062 -0.32227,0.8789063 -0.32227,4.2480474 l 0,16.113281 q 0,3.515625 0.35156,4.394531 0.35157,0.878906 1.52344,0.878906 1.14258,0 1.40625,-0.791015 0.29297,-0.820313 0.29297,-3.925782 l 0,-16.669921 z"
         style="font-style:normal;font-variant:normal;font-weight:normal;font-stretch:condensed;font-size:60px;font-family:Impact;-inkscape-font-specification:'Impact Condensed';text-align:center;text-anchor:middle;fill:#ffffff;fill-opacity:1"
         id="path4147" />
      <path
         d="m 237.5564,-5.1288681 0,6.12304687 3.19336,0 0,6.15234373 -3.19336,0 0,20.8007815 q 0,3.83789 0.38086,4.277344 0.41015,0.439453 3.31054,0.439453 l 0,6.269531 -4.77539,0 q -4.04297,0 -5.77148,-0.322266 -1.72852,-0.351562 -3.04688,-1.552734 -1.31836,-1.230469 -1.64062,-2.783203 -0.32227,-1.582031 -0.32227,-7.382813 l 0,-19.7460935 -2.54883,0 0,-6.15234373 2.54883,0 0,-6.12304687 11.86524,0 z"
         style="font-style:normal;font-variant:normal;font-weight:normal;font-stretch:condensed;font-size:60px;font-family:Impact;-inkscape-font-specification:'Impact Condensed';text-align:center;text-anchor:middle;fill:#ffffff;fill-opacity:1"
         id="path4149" />
      <path
         d="m 270.13452,13.709023 0,9.521484 q 0,5.244141 -0.52734,7.705078 -0.52735,2.431641 -2.25586,4.570313 -1.72852,2.109375 -4.45313,3.134765 -2.69531,0.996094 -6.21093,0.996094 -3.92579,0 -6.65039,-0.849609 -2.72461,-0.878907 -4.24805,-2.607422 -1.49414,-1.757813 -2.13867,-4.21875 -0.64453,-2.490235 -0.64453,-7.441407 l 0,-9.960937 q 0,-5.419922 1.17187,-8.466797 1.17188,-3.046875 4.21875,-4.8925781 3.04688,-1.84570313 7.79297,-1.84570313 3.98437,0 6.82617,1.20117188 2.87109,1.17187495 4.42383,3.07617185 1.55273,1.9042969 2.10937,3.9257813 0.58594,2.0214843 0.58594,6.1523442 z m -11.83594,-2.929688 q 0,-2.9882812 -0.32226,-3.75 -0.32227,-0.7910156 -1.37695,-0.7910156 -1.05469,0 -1.40625,0.7910156 -0.35157,0.7617188 -0.35157,3.75 l 0,17.548828 q 0,2.753906 0.35157,3.603516 0.35156,0.820312 1.37695,0.820312 1.05469,0 1.37695,-0.761718 0.35156,-0.761719 0.35156,-3.28125 l 0,-17.929688 z"
         style="font-style:normal;font-variant:normal;font-weight:normal;font-stretch:condensed;font-size:60px;font-family:Impact;-inkscape-font-specification:'Impact Condensed';text-align:center;text-anchor:middle;fill:#ffffff;fill-opacity:1"
         id="path4151" />
      <path
         d="m 286.10132,0.05667877 -0.20508,3.42773433 q 1.58203,-2.0800781 3.48633,-3.1054687 1.9043,-1.02539063 4.16015,-1.02539063 2.75391,0 4.7461,1.49414063 2.02148,1.4648437 2.51953,3.3984375 0.49805,1.9335937 0.49805,6.5625001 l 0,16.376953 q 0,5.302734 -0.64453,7.558594 -0.61524,2.226562 -2.57813,3.574219 -1.93359,1.318359 -4.6875,1.318359 -2.19727,0 -4.07227,-1.025391 -1.875,-1.02539 -3.42773,-3.046875 l 0,8.90625 -11.83594,0 0,-44.41406223 12.04102,0 z m 3.36914,11.30859423 q 0,-3.6035161 -0.26367,-4.3652349 -0.26367,-0.7617187 -1.46485,-0.7617187 -1.17187,0 -1.52343,0.8789062 -0.32227,0.8789063 -0.32227,4.2480474 l 0,16.113281 q 0,3.515625 0.35156,4.394531 0.35157,0.878906 1.52344,0.878906 1.14258,0 1.40625,-0.791015 0.29297,-0.820313 0.29297,-3.925782 l 0,-16.669921 z"
         style="font-style:normal;font-variant:normal;font-weight:normal;font-stretch:condensed;font-size:60px;font-family:Impact;-inkscape-font-specification:'Impact Condensed';text-align:center;text-anchor:middle;fill:#ffffff;fill-opacity:1"
         id="path4153" />
      <path
         d="m 168.50366,75.056679 -0.20508,3.691406 q 1.37696,-2.197266 3.28125,-3.28125 1.9043,-1.113281 4.33594,-1.113281 4.7461,0 7.4707,4.394531 1.49415,-2.197266 3.36915,-3.28125 1.875,-1.113281 4.16015,-1.113281 3.01758,0 4.98047,1.464844 1.99219,1.464843 2.54883,3.603515 0.55664,2.109375 0.55664,6.884766 l 0,27.626951 -11.48438,0 0,-25.341795 q 0,-4.980469 -0.35156,-6.152344 -0.32226,-1.201172 -1.55273,-1.201172 -1.25977,0 -1.64063,1.171875 -0.35156,1.171875 -0.35156,6.181641 l 0,25.341795 -11.48438,0 0,-24.697264 q 0,-5.71289 -0.29296,-6.855468 -0.26368,-1.142579 -1.52344,-1.142579 -0.79102,0 -1.34766,0.615235 -0.55664,0.585937 -0.61523,1.464844 -0.0586,0.849609 -0.0586,3.662109 l 0,26.953123 -11.48437,0 0,-38.876951 11.68945,0 z"
         style="font-style:normal;font-variant:normal;font-weight:normal;font-stretch:condensed;font-size:60px;font-family:Impact;-inkscape-font-specification:'Impact Condensed';text-align:center;text-anchor:middle;fill:#ffffff;fill-opacity:1"
         id="path4155" />
      <path
         d="m 229.88062,88.709023 0,9.521484 q 0,5.244143 -0.52735,7.705083 -0.52734,2.43164 -2.25586,4.57031 -1.72851,2.10937 -4.45312,3.13476 -2.69532,0.9961 -6.21094,0.9961 -3.92578,0 -6.65039,-0.84961 -2.72461,-0.87891 -4.24805,-2.60742 -1.49414,-1.75782 -2.13867,-4.21875 -0.64453,-2.49024 -0.64453,-7.441411 l 0,-9.960937 q 0,-5.419922 1.17187,-8.466797 1.17188,-3.046875 4.21875,-4.892578 3.04688,-1.845703 7.79297,-1.845703 3.98438,0 6.82617,1.201172 2.8711,1.171875 4.42383,3.076172 1.55274,1.904296 2.10938,3.925781 0.58594,2.021484 0.58594,6.152344 z m -11.83594,-2.929688 q 0,-2.988281 -0.32227,-3.75 -0.32226,-0.791016 -1.37695,-0.791016 -1.05469,0 -1.40625,0.791016 -0.35156,0.761719 -0.35156,3.75 l 0,17.548825 q 0,2.75391 0.35156,3.60352 0.35156,0.82031 1.37695,0.82031 1.05469,0 1.37696,-0.76172 0.35156,-0.76172 0.35156,-3.28125 l 0,-17.929685 z"
         style="font-style:normal;font-variant:normal;font-weight:normal;font-stretch:condensed;font-size:60px;font-family:Impact;-inkscape-font-specification:'Impact Condensed';text-align:center;text-anchor:middle;fill:#ffffff;fill-opacity:1"
         id="path4157" />
      <path
         d="m 260.73022,66.501991 0,47.431639 -11.83593,0 0,-2.8125 q -1.69922,1.75781 -3.57422,2.63672 -1.875,0.87891 -3.92578,0.87891 -2.75391,0 -4.77539,-1.43555 -2.02149,-1.46484 -2.60743,-3.36914 -0.55664,-1.9043 -0.55664,-6.21094 l 0,-18.193357 q 0,-4.482422 0.55664,-6.357422 0.58594,-1.875 2.63672,-3.28125 2.05078,-1.435547 4.89258,-1.435547 2.19727,0 4.01367,0.791015 1.84571,0.791016 3.33985,2.373047 l 0,-11.015625 11.83593,0 z m -11.83593,18.339844 q 0,-2.138672 -0.38086,-2.871094 -0.35156,-0.732422 -1.43555,-0.732422 -1.05469,0 -1.43555,0.673829 -0.35156,0.644531 -0.35156,2.929687 l 0,19.042965 q 0,2.37305 0.35156,3.13477 0.35157,0.73242 1.34766,0.73242 1.14258,0 1.52344,-0.82031 0.38086,-0.84961 0.38086,-4.10156 l 0,-17.988285 z"
         style="font-style:normal;font-variant:normal;font-weight:normal;font-stretch:condensed;font-size:60px;font-family:Impact;-inkscape-font-specification:'Impact Condensed';text-align:center;text-anchor:middle;fill:#ffffff;fill-opacity:1"
         id="path4159" />
      <path
         d="m 291.78491,95.183632 -15.32226,0 0,8.408208 q 0,2.63671 0.38086,3.39843 0.38086,0.76172 1.46484,0.76172 1.34766,0 1.78711,-0.99609 0.46875,-1.02539 0.46875,-3.92578 l 0,-5.126957 11.2207,0 0,2.871097 q 0,3.60351 -0.46875,5.53711 -0.43945,1.93359 -2.10937,4.13086 -1.66992,2.19726 -4.24805,3.31054 -2.54883,1.08399 -6.41602,1.08399 -3.75,0 -6.62109,-1.08399 -2.87109,-1.08398 -4.48242,-2.95898 -1.58203,-1.9043 -2.19727,-4.16016 -0.61523,-2.28515 -0.61523,-6.621092 l 0,-11.33789 q 0,-5.097657 1.37695,-8.027344 1.37696,-2.958985 4.51172,-4.511719 3.13477,-1.582031 7.20703,-1.582031 4.98047,0 8.20313,1.904297 3.25195,1.875 4.54101,5.009765 1.31836,3.105469 1.31836,8.759766 l 0,5.15625 z m -11.86523,-6.328125 0,-2.841797 q 0,-3.017578 -0.32227,-3.896484 -0.32226,-0.878907 -1.31836,-0.878907 -1.23047,0 -1.52343,0.761719 -0.29297,0.732422 -0.29297,4.013672 l 0,2.841797 3.45703,0 z"
         style="font-style:normal;font-variant:normal;font-weight:normal;font-stretch:condensed;font-size:60px;font-family:Impact;-inkscape-font-specification:'Impact Condensed';text-align:center;text-anchor:middle;fill:#ffffff;fill-opacity:1"
         id="path4161" />
    </g>
  </g>
</svg>
