<?xml version="1.0" encoding="UTF-8" standalone="no"?>
<!-- Created with Inkscape (http://www.inkscape.org/) -->

<svg
   xmlns:dc="http://purl.org/dc/elements/1.1/"
   xmlns:cc="http://creativecommons.org/ns#"
   xmlns:rdf="http://www.w3.org/1999/02/22-rdf-syntax-ns#"
   xmlns:svg="http://www.w3.org/2000/svg"
   xmlns="http://www.w3.org/2000/svg"
   xmlns:sodipodi="http://sodipodi.sourceforge.net/DTD/sodipodi-0.dtd"
   xmlns:inkscape="http://www.inkscape.org/namespaces/inkscape"
   width="77.682571mm"
   height="77.682571mm"
   viewBox="0 0 275.25321 275.2532"
   id="svg2"
   version="1.1"
   inkscape:version="0.91 r13725"
   sodipodi:docname="mode-tablet.svg">
  <defs
     id="defs4" />
  <sodipodi:namedview
     id="base"
     pagecolor="#ffffff"
     bordercolor="#666666"
     borderopacity="1.0"
     inkscape:pageopacity="0.0"
     inkscape:pageshadow="2"
     inkscape:zoom="1.979899"
     inkscape:cx="32.332945"
     inkscape:cy="69.823335"
     inkscape:document-units="px"
     inkscape:current-layer="layer1"
     showgrid="false"
     inkscape:window-width="1920"
     inkscape:window-height="1015"
     inkscape:window-x="0"
     inkscape:window-y="0"
     inkscape:window-maximized="1"
     fit-margin-top="1"
     fit-margin-left="1"
     fit-margin-right="1"
     fit-margin-bottom="1" />
  <metadata
     id="metadata7">
    <rdf:RDF>
      <cc:Work
         rdf:about="">
        <dc:format>image/svg+xml</dc:format>
        <dc:type
           rdf:resource="http://purl.org/dc/dcmitype/StillImage" />
        <dc:title />
      </cc:Work>
    </rdf:RDF>
  </metadata>
  <g
     inkscape:label="Layer 1"
     inkscape:groupmode="layer"
     id="layer1"
     transform="translate(-86.769948,71.030607)">
    <path
       style="fill:#000000;fill-opacity:1;stroke:#000000;stroke-width:1.77165353;stroke-linecap:square;stroke-linejoin:round;stroke-miterlimit:4;stroke-dasharray:none;stroke-dashoffset:0;stroke-opacity:1"
       d="m 294.99477,188.73885 -140.92857,0 c -6.04196,0 -9.94048,-3.51191 -10.00001,-10 l -0.26786,-224.285711 c 0,-6.584106 3.95834,-9.940476 10.00001,-9.999996 l 141.19643,0 c 6.54952,0 10,3.973674 10,10 l 0,224.285707 c 0,5.74528 -3.36303,10 -10,10 z"
       id="rect4146"
       inkscape:connector-curvature="0"
       sodipodi:nodetypes="ccccccccc" />
    <g
       style="font-style:normal;font-weight:normal;font-size:25px;line-height:125%;font-family:sans-serif;letter-spacing:0px;word-spacing:0px;fill:#ffffff;fill-opacity:1;stroke:none;stroke-width:1px;stroke-linecap:butt;stroke-linejoin:miter;stroke-opacity:1"
       id="text4171">
      <path
         d="m 166.35944,4.4425621 0,6.1230469 3.19336,0 0,6.152344 -3.19336,0 0,20.800781 q 0,3.837891 0.38086,4.277344 0.41015,0.439453 3.31054,0.439453 l 0,6.269531 -4.77539,0 q -4.04297,0 -5.77148,-0.322266 -1.72852,-0.351562 -3.04688,-1.552734 -1.31836,-1.230469 -1.64062,-2.783203 -0.32227,-1.582031 -0.32227,-7.382813 l 0,-19.746093 -2.54883,0 0,-6.152344 2.54883,0 0,-6.1230469 11.86524,0 z"
         style="font-style:normal;font-variant:normal;font-weight:normal;font-stretch:condensed;font-size:60px;font-family:Impact;-inkscape-font-specification:'Impact Condensed';text-align:center;text-anchor:middle;fill:#ffffff;fill-opacity:1"
         id="path4138" />
      <path
         d="m 182.73639,24.686703 -11.10352,0 0,-2.607422 q 0,-4.511719 1.02539,-6.94336 1.05469,-2.460937 4.18946,-4.335937 3.13476,-1.875 8.14453,-1.875 6.00586,0 9.05273,2.138672 3.04688,2.109375 3.66211,5.214844 0.61524,3.076171 0.61524,12.714843 l 0,19.511719 -11.51368,0 0,-3.457031 q -1.08398,2.080078 -2.8125,3.134765 -1.69921,1.025391 -4.07226,1.025391 -3.10547,0 -5.71289,-1.728516 -2.57813,-1.757812 -2.57813,-7.646484 l 0,-3.193359 q 0,-4.365235 1.37696,-5.947266 1.37695,-1.582031 6.82617,-3.691406 5.83008,-2.285156 6.24023,-3.076172 0.41016,-0.791016 0.41016,-3.222656 0,-3.046875 -0.46875,-3.955078 -0.43945,-0.9375 -1.49414,-0.9375 -1.20117,0 -1.49414,0.791015 -0.29297,0.761719 -0.29297,4.013672 l 0,4.072266 z m 3.75,5.332031 q -2.8418,2.080078 -3.31055,3.486328 -0.43945,1.40625 -0.43945,4.042969 0,3.017578 0.38086,3.896484 0.41015,0.878906 1.58203,0.878906 1.11328,0 1.43555,-0.673828 0.35156,-0.703125 0.35156,-3.632812 l 0,-7.998047 z"
         style="font-style:normal;font-variant:normal;font-weight:normal;font-stretch:condensed;font-size:60px;font-family:Impact;-inkscape-font-specification:'Impact Condensed';text-align:center;text-anchor:middle;fill:#ffffff;fill-opacity:1"
         id="path4140" />
      <path
         d="m 214.23053,1.0734215 0,11.2207035 q 1.46484,-1.699219 3.25195,-2.5195316 1.81641,-0.8496094 3.92578,-0.8496094 2.43164,0 4.21875,0.7617187 1.78711,0.7617183 2.72461,2.1386723 0.9375,1.376953 1.11328,2.695312 0.20508,1.318359 0.20508,5.625 l 0,17.519531 q 0,4.277344 -0.58593,6.386719 -0.55665,2.080078 -2.66602,3.632813 -2.10938,1.523437 -5.00977,1.523437 -2.08007,0 -3.89648,-0.908203 -1.78711,-0.908203 -3.28125,-2.724609 l -0.76172,2.929687 -11.07422,0 0,-47.4316405 11.83594,0 z m 3.60352,19.5996095 q 0,-3.017578 -0.38086,-3.925781 -0.38086,-0.9375 -1.49414,-0.9375 -1.08399,0 -1.40625,0.820312 -0.32227,0.791016 -0.32227,4.042969 l 0,16.757812 q 0,3.134766 0.35156,4.013672 0.38086,0.878906 1.46485,0.878906 1.11328,0 1.43554,-0.908203 0.35157,-0.908203 0.35157,-4.365234 l 0,-16.376953 z"
         style="font-style:normal;font-variant:normal;font-weight:normal;font-stretch:condensed;font-size:60px;font-family:Impact;-inkscape-font-specification:'Impact Condensed';text-align:center;text-anchor:middle;fill:#ffffff;fill-opacity:1"
         id="path4142" />
      <path
         d="m 245.75397,1.0734215 0,47.4316405 -12.1875,0 0,-47.4316405 12.1875,0 z"
         style="font-style:normal;font-variant:normal;font-weight:normal;font-stretch:condensed;font-size:60px;font-family:Impact;-inkscape-font-specification:'Impact Condensed';text-align:center;text-anchor:middle;fill:#ffffff;fill-opacity:1"
         id="path4144" />
      <path
         d="m 276.77936,29.755062 -15.32227,0 0,8.408203 q 0,2.636719 0.38086,3.398438 0.38086,0.761718 1.46485,0.761718 1.34765,0 1.7871,-0.996093 0.46875,-1.025391 0.46875,-3.925782 l 0,-5.126953 11.22071,0 0,2.871094 q 0,3.603516 -0.46875,5.537109 -0.43946,1.933594 -2.10938,4.13086 -1.66992,2.197265 -4.24804,3.310547 -2.54883,1.083984 -6.41602,1.083984 -3.75,0 -6.62109,-1.083984 -2.8711,-1.083985 -4.48243,-2.958985 -1.58203,-1.904297 -2.19726,-4.160156 -0.61524,-2.285156 -0.61524,-6.621094 l 0,-11.33789 q 0,-5.097657 1.37696,-8.027344 1.37695,-2.958984 4.51172,-4.511719 3.13476,-1.582031 7.20703,-1.582031 4.98047,0 8.20312,1.904297 3.25196,1.875 4.54102,5.009765 1.31836,3.105469 1.31836,8.759766 l 0,5.15625 z m -11.86524,-6.328125 0,-2.841797 q 0,-3.017578 -0.32226,-3.896484 -0.32227,-0.878906 -1.31836,-0.878906 -1.23047,0 -1.52344,0.761718 -0.29297,0.732422 -0.29297,4.013672 l 0,2.841797 3.45703,0 z"
         style="font-style:normal;font-variant:normal;font-weight:normal;font-stretch:condensed;font-size:60px;font-family:Impact;-inkscape-font-specification:'Impact Condensed';text-align:center;text-anchor:middle;fill:#ffffff;fill-opacity:1"
         id="path4146" />
      <path
         d="m 293.15631,4.4425621 0,6.1230469 3.19336,0 0,6.152344 -3.19336,0 0,20.800781 q 0,3.837891 0.38086,4.277344 0.41016,0.439453 3.31055,0.439453 l 0,6.269531 -4.77539,0 q -4.04297,0 -5.77149,-0.322266 -1.72851,-0.351562 -3.04687,-1.552734 -1.31836,-1.230469 -1.64063,-2.783203 -0.32226,-1.582031 -0.32226,-7.382813 l 0,-19.746093 -2.54883,0 0,-6.152344 2.54883,0 0,-6.1230469 11.86523,0 z"
         style="font-style:normal;font-variant:normal;font-weight:normal;font-stretch:condensed;font-size:60px;font-family:Impact;-inkscape-font-specification:'Impact Condensed';text-align:center;text-anchor:middle;fill:#ffffff;fill-opacity:1"
         id="path4148" />
      <path
         d="m 168.67389,84.628109 -0.20508,3.691406 q 1.37695,-2.197265 3.28125,-3.28125 1.9043,-1.113281 4.33594,-1.113281 4.74609,0 7.4707,4.394531 1.49414,-2.197265 3.36914,-3.28125 1.875,-1.113281 4.16016,-1.113281 3.01758,0 4.98047,1.464844 1.99218,1.464843 2.54883,3.603515 0.55664,2.109375 0.55664,6.884766 l 0,27.626951 -11.48438,0 0,-25.341795 q 0,-4.980469 -0.35156,-6.152344 -0.32227,-1.201171 -1.55274,-1.201171 -1.25976,0 -1.64062,1.171875 -0.35156,1.171875 -0.35156,6.18164 l 0,25.341795 -11.48438,0 0,-24.697264 q 0,-5.71289 -0.29297,-6.855468 -0.26367,-1.142578 -1.52343,-1.142578 -0.79102,0 -1.34766,0.615234 -0.55664,0.585937 -0.61524,1.464844 -0.0586,0.849609 -0.0586,3.662109 l 0,26.953123 -11.48437,0 0,-38.876951 11.68945,0 z"
         style="font-style:normal;font-variant:normal;font-weight:normal;font-stretch:condensed;font-size:60px;font-family:Impact;-inkscape-font-specification:'Impact Condensed';text-align:center;text-anchor:middle;fill:#ffffff;fill-opacity:1"
         id="path4150" />
      <path
         d="m 230.05084,98.280453 0,9.521487 q 0,5.24414 -0.52734,7.70508 -0.52735,2.43164 -2.25586,4.57031 -1.72852,2.10937 -4.45313,3.13476 -2.69531,0.9961 -6.21093,0.9961 -3.92578,0 -6.65039,-0.84961 -2.72461,-0.87891 -4.24805,-2.60742 -1.49414,-1.75782 -2.13867,-4.21875 -0.64453,-2.49024 -0.64453,-7.44141 l 0,-9.960938 q 0,-5.419922 1.17187,-8.466797 1.17188,-3.046875 4.21875,-4.892578 3.04688,-1.845703 7.79297,-1.845703 3.98437,0 6.82617,1.201172 2.8711,1.171875 4.42383,3.076172 1.55273,1.904297 2.10937,3.925781 0.58594,2.021484 0.58594,6.152344 z M 218.2149,95.350765 q 0,-2.988281 -0.32226,-3.75 -0.32227,-0.791015 -1.37695,-0.791015 -1.05469,0 -1.40625,0.791015 -0.35157,0.761719 -0.35157,3.75 l 0,17.548825 q 0,2.75391 0.35157,3.60352 0.35156,0.82031 1.37695,0.82031 1.05469,0 1.37695,-0.76172 0.35156,-0.76172 0.35156,-3.28125 l 0,-17.929685 z"
         style="font-style:normal;font-variant:normal;font-weight:normal;font-stretch:condensed;font-size:60px;font-family:Impact;-inkscape-font-specification:'Impact Condensed';text-align:center;text-anchor:middle;fill:#ffffff;fill-opacity:1"
         id="path4152" />
      <path
         d="m 260.90045,76.073421 0,47.431639 -11.83594,0 0,-2.8125 q -1.69921,1.75781 -3.57421,2.63672 -1.875,0.87891 -3.92579,0.87891 -2.7539,0 -4.77539,-1.43555 -2.02148,-1.46484 -2.60742,-3.36914 -0.55664,-1.9043 -0.55664,-6.21094 l 0,-18.193357 q 0,-4.482422 0.55664,-6.357422 0.58594,-1.875 2.63672,-3.28125 2.05078,-1.435547 4.89258,-1.435547 2.19726,0 4.01367,0.791016 1.8457,0.791015 3.33984,2.373046 l 0,-11.015625 11.83594,0 z m -11.83594,18.339844 q 0,-2.138672 -0.38086,-2.871094 -0.35156,-0.732421 -1.43554,-0.732421 -1.05469,0 -1.43555,0.673828 -0.35156,0.644531 -0.35156,2.929687 l 0,19.042965 q 0,2.37305 0.35156,3.13477 0.35156,0.73242 1.34766,0.73242 1.14258,0 1.52343,-0.82031 0.38086,-0.84961 0.38086,-4.10156 l 0,-17.988285 z"
         style="font-style:normal;font-variant:normal;font-weight:normal;font-stretch:condensed;font-size:60px;font-family:Impact;-inkscape-font-specification:'Impact Condensed';text-align:center;text-anchor:middle;fill:#ffffff;fill-opacity:1"
         id="path4154" />
      <path
         d="m 291.95514,104.75506 -15.32227,0 0,8.40821 q 0,2.63671 0.38086,3.39843 0.38086,0.76172 1.46485,0.76172 1.34765,0 1.78711,-0.99609 0.46875,-1.02539 0.46875,-3.92578 l 0,-5.12696 11.2207,0 0,2.8711 q 0,3.60351 -0.46875,5.53711 -0.43945,1.93359 -2.10938,4.13086 -1.66992,2.19726 -4.24804,3.31054 -2.54883,1.08399 -6.41602,1.08399 -3.75,0 -6.62109,-1.08399 -2.8711,-1.08398 -4.48242,-2.95898 -1.58204,-1.9043 -2.19727,-4.16016 -0.61523,-2.28515 -0.61523,-6.62109 l 0,-11.337892 q 0,-5.097657 1.37695,-8.027344 1.37695,-2.958984 4.51172,-4.511719 3.13476,-1.582031 7.20703,-1.582031 4.98047,0 8.20312,1.904297 3.25196,1.875 4.54102,5.009765 1.31836,3.105469 1.31836,8.759766 l 0,5.156248 z m -11.86524,-6.328123 0,-2.841797 q 0,-3.017578 -0.32226,-3.896484 -0.32227,-0.878906 -1.31836,-0.878906 -1.23047,0 -1.52344,0.761718 -0.29297,0.732422 -0.29297,4.013672 l 0,2.841797 3.45703,0 z"
         style="font-style:normal;font-variant:normal;font-weight:normal;font-stretch:condensed;font-size:60px;font-family:Impact;-inkscape-font-specification:'Impact Condensed';text-align:center;text-anchor:middle;fill:#ffffff;fill-opacity:1"
         id="path4156" />
    </g>
  </g>
</svg>
