<?xml version="1.0" encoding="UTF-8" standalone="no"?>
<!-- Created with Inkscape (http://www.inkscape.org/) -->

<svg
   xmlns:dc="http://purl.org/dc/elements/1.1/"
   xmlns:cc="http://creativecommons.org/ns#"
   xmlns:rdf="http://www.w3.org/1999/02/22-rdf-syntax-ns#"
   xmlns:svg="http://www.w3.org/2000/svg"
   xmlns="http://www.w3.org/2000/svg"
   xmlns:sodipodi="http://sodipodi.sourceforge.net/DTD/sodipodi-0.dtd"
   xmlns:inkscape="http://www.inkscape.org/namespaces/inkscape"
   width="77.682571mm"
   height="77.682571mm"
   viewBox="0 0 275.25321 275.2532"
   id="svg2"
   version="1.1"
   inkscape:version="0.91 r13725"
   sodipodi:docname="toggle-touch.svg">
  <defs
     id="defs4" />
  <sodipodi:namedview
     id="base"
     pagecolor="#ffffff"
     bordercolor="#666666"
     borderopacity="1.0"
     inkscape:pageopacity="0.0"
     inkscape:pageshadow="2"
     inkscape:zoom="1.4"
     inkscape:cx="304.17898"
     inkscape:cy="90.480006"
     inkscape:document-units="px"
     inkscape:current-layer="layer1"
     showgrid="false"
     inkscape:window-width="1920"
     inkscape:window-height="1015"
     inkscape:window-x="0"
     inkscape:window-y="0"
     inkscape:window-maximized="1"
     fit-margin-top="1"
     fit-margin-left="1"
     fit-margin-right="1"
     fit-margin-bottom="1"
     inkscape:snap-to-guides="true" />
  <metadata
     id="metadata7">
    <rdf:RDF>
      <cc:Work
         rdf:about="">
        <dc:format>image/svg+xml</dc:format>
        <dc:type
           rdf:resource="http://purl.org/dc/dcmitype/StillImage" />
        <dc:title></dc:title>
      </cc:Work>
    </rdf:RDF>
  </metadata>
  <g
     inkscape:label="Layer 1"
     inkscape:groupmode="layer"
     id="layer1"
     transform="translate(-86.769948,71.030607)">
    <path
       style="fill:#000000;fill-opacity:1;stroke:#000000;stroke-width:1.77165353;stroke-linecap:square;stroke-linejoin:round;stroke-miterlimit:4;stroke-dasharray:none;stroke-dashoffset:0;stroke-opacity:1"
       d="m 294.99477,188.73885 -140.92857,0 c -6.04196,0 -9.94048,-3.51191 -10.00001,-10 l -0.26786,-224.285711 c 0,-6.584106 3.95834,-9.940476 10.00001,-9.999996 l 141.19643,0 c 6.54952,0 10,3.973674 10,10 l 0,224.285707 c 0,5.74528 -3.36303,10 -10,10 z"
       id="rect4146"
       inkscape:connector-curvature="0"
       sodipodi:nodetypes="ccccccccc" />
    <g
       id="g4183"
       transform="matrix(1.0781317,0,0,1.0781317,85.951513,7.155023)">
      <path
         style="fill:#ffffff;fill-opacity:1;stroke:none;stroke-width:0.01492591;stroke-opacity:1"
         id="path10"
         d="m 111.77836,21.93665 c -12.230289,1.47468 -22.627678,10.595903 -25.853167,22.666487 -1.195565,4.501654 -1.155265,11.075025 0.07911,15.576679 1.195565,4.26284 2.31053,5.577813 4.859876,5.577813 2.110523,0 3.386689,-0.837344 4.143432,-2.668753 0.51793,-1.234372 0.51793,-1.632894 -0.279114,-4.421054 -1.792602,-6.134549 -0.876151,-12.827327 2.389638,-17.887211 6.413665,-9.91976 18.443945,-13.066141 28.920445,-7.568929 5.73602,3.026975 10.15857,9.560046 11.03472,16.252824 0.39852,2.947867 0.35822,3.983725 -0.23881,7.051 -0.63734,3.186681 -0.63734,3.70461 -0.0806,4.979283 0.59703,1.513487 2.35083,2.668753 3.94342,2.668753 1.55379,0 3.62551,-1.632895 4.14344,-3.306089 1.99111,-5.936035 1.59408,-13.185549 -0.95676,-19.878327 C 138.9465,28.269713 125.48184,20.302263 111.77836,21.93665 Z"
         inkscape:connector-curvature="0" />
      <path
         style="fill:#ffffff;fill-opacity:1;stroke:none;stroke-width:0.01492591;stroke-opacity:1"
         id="path12"
         d="m 111.22013,39.385039 c -3.94342,1.39408 -6.41366,3.70461 -8.20626,7.568929 -0.87615,1.871709 -0.87615,2.071716 -1.07616,31.90861 l -0.19852,30.075712 -2.907562,-5.09869 c -3.346389,-5.776331 -4.859877,-7.489826 -8.007751,-8.963013 -1.792602,-0.837344 -2.82846,-1.035858 -5.218098,-1.035858 -2.589646,0 -3.386689,0.198514 -5.65692,1.314972 -4.382247,2.150824 -6.373364,5.736029 -6.373364,11.433249 0,4.58076 0.916451,7.56893 5.936035,19.71862 6.691285,16.09311 14.300514,29.67718 21.0724,37.60434 3.18668,3.78521 4.62106,4.54046 6.93159,3.86431 2.11202,-0.63733 3.30609,-2.38963 3.02698,-4.54046 -0.11941,-1.11496 -0.75675,-2.15082 -2.31053,-3.98372 -7.72864,-8.80331 -15.894606,-23.98146 -23.702349,-44.0986 -1.35378,-3.5061 -1.832902,-5.2987 -1.991117,-7.64804 -0.198514,-2.86876 -0.159707,-3.10758 0.797044,-4.06283 1.274673,-1.27468 2.947867,-1.35378 4.382247,-0.23882 0.558229,0.43882 4.024025,6.05544 7.688336,12.46911 3.704611,6.37336 7.289819,12.23029 7.967449,12.90643 1.7135,1.7926 3.94343,1.8329 5.81663,0.15971 l 1.31497,-1.15527 0.19702,-38.602878 c 0.19852,-42.026884 0.0791,-39.517839 2.50905,-40.952219 1.67319,-0.995558 4.06283,-0.597036 5.61662,0.956751 l 1.23437,1.234373 0.19852,27.208441 c 0.23881,30.316012 0.0791,28.801032 2.98816,29.757782 1.91201,0.63734 3.98373,-0.0806 5.01959,-1.7523 0.71644,-1.15526 0.75674,-2.11052 0.75674,-13.106439 0,-12.707919 0.0791,-13.424363 2.07172,-14.779636 1.15526,-0.837343 4.06283,-0.797043 5.3375,0 2.07172,1.39408 2.15083,1.912009 2.15083,15.57668 0,11.791465 0.0403,12.748215 0.75674,13.903485 1.59409,2.62995 5.65692,2.62995 7.25101,0 0.67763,-1.11497 0.75674,-2.07172 0.75674,-10.915318 0,-10.636203 0.15971,-11.473547 2.38964,-12.628812 2.38964,-1.234373 5.45691,-0.398522 6.57337,1.792601 0.47763,0.955259 0.59704,2.947868 0.59704,10.755611 0,10.557098 0.1597,11.392948 2.38963,12.548208 1.47468,0.75675 2.50905,0.75675 3.98373,0 2.03142,-1.03585 2.38964,-2.31053 2.38964,-8.48538 0,-5.100179 0.0791,-5.656915 0.91645,-6.89278 0.47912,-0.716444 1.55379,-1.553788 2.35083,-1.871709 2.11202,-0.835851 4.14343,0.238814 5.45691,2.82846 0.95526,1.873201 0.95526,2.150823 1.15527,13.942289 0.35822,21.90975 -1.27468,38.6805 -4.74047,48.99878 -1.51349,4.62106 -1.51349,5.57781 0.19851,7.28981 2.07172,2.07172 5.09869,1.7538 6.61218,-0.71644 2.62995,-4.30165 5.2987,-18.04542 6.37486,-32.66535 0.47763,-7.0107 0.51793,-31.311577 0.0388,-35.056488 -1.31348,-9.998867 -10.23768,-16.293123 -18.36483,-12.906434 -0.47763,0.198515 -0.75675,-0.119407 -1.11497,-1.114966 -0.83734,-2.27023 -3.82402,-5.258398 -6.69278,-6.652478 -2.19112,-1.114965 -3.02847,-1.274672 -5.45691,-1.274672 -1.59409,0 -3.66431,0.317922 -4.66136,0.637336 -1.6329,0.597036 -1.7926,0.597036 -2.15083,-0.0403 -0.19851,-0.358222 -1.15526,-1.513487 -2.11201,-2.509045 -3.06728,-3.26579 -7.60923,-4.661362 -12.54822,-3.824019 l -1.8717,0.319415 -0.11941,-9.87946 c -0.11941,-9.719752 -0.11941,-9.91976 -1.15527,-12.109391 -2.19112,-4.661361 -6.49277,-7.528629 -11.67206,-7.807743 -2.02694,-0.122393 -3.38221,0.07761 -4.8957,0.595544 z"
         inkscape:connector-curvature="0" />
    </g>
  </g>
</svg>
